# xmcd CD database file
#
# Track frame offsets:
#	150
#	13102
#	22572
#	41615
#	53917
#	75703
#	91831
#	102222
#	117149
#	130511
#	143842
#	162561
#	178263
#
# Disc length: 2529 seconds
#
# Revision: 0
# Processed by: cddbd v1.5.1PL2 Copyright (c) Steve Scherf et al.
# Submitted via: CDex 1.51
#
DISCID=9b09df0d
DTITLE=Jesus and the Devil - Let Them Have It
DYEAR=2006
DGENRE=Salsa
TTITLE0=Are You Ready
TTITLE1=Do It For the Queen
TTITLE2=Beautiful
TTITLE3=Teen Idol
TTITLE4=Hostage
TTITLE5=Punk Rock Song
TTITLE6=The Dead
TTITLE7=Get Get Get
TTITLE8=Burn Thy Love
TTITLE9=Know Your Name
TTITLE10=The Way You Move
TTITLE11=Legal in England
TTITLE12=Bricks and Glass
EXTD=YEAR: 2006
EXTT0=
EXTT1=
EXTT2=
EXTT3=
EXTT4=
EXTT5=
EXTT6=
EXTT7=
EXTT8=
EXTT9=
EXTT10=
EXTT11=
EXTT12=
PLAYORDER=
